<svg height="90" viewBox="0 0 90 90" width="90" xmlns="http://www.w3.org/2000/svg"><g fill="none"><path d="m0 0h90v90h-90z" fill="#494949" opacity="0"/><path d="m45 14.0968956c8.3200863 0 16.0845954 3.2841104 21.8517946 9.0513098 5.7671994 5.7671992 9.0513098 13.5317083 9.0513098 21.8517946s-3.2841104 16.0845954-9.0513098 21.8517946c-5.7671992 5.7671994-13.5317083 9.0513098-21.8517946 9.0513098s-16.0845954-3.2841104-21.8517947-9.0513098c-5.7671994-5.7671992-9.0513097-13.5317083-9.0513097-21.8517946s3.2841103-16.0845954 9.0513097-21.8517947c5.7671993-5.7671994 13.5317084-9.0513097 21.8517947-9.0513097z" fill="#fff"/><path d="m45 14.0968956c8.3200863 0 16.0845954 3.2841104 21.8517946 9.0513098 5.7671994 5.7671992 9.0513098 13.5317083 9.0513098 21.8517946s-3.2841104 16.0845954-9.0513098 21.8517946c-5.7671992 5.7671994-13.5317083 9.0513098-21.8517946 9.0513098s-16.0845954-3.2841104-21.8517947-9.0513098c-5.7671994-5.7671992-9.0513097-13.5317083-9.0513097-21.8517946s3.2841103-16.0845954 9.0513097-21.8517947c5.7671993-5.7671994 13.5317084-9.0513097 21.8517947-9.0513097zm0 6.9002822c-6.471207 0-12.4865847 2.5442902-16.9725584 7.0302639-4.4859736 4.4859736-7.0302639 10.5013513-7.0302639 16.9725583s2.5442903 12.4865847 7.0302639 16.9725583c4.4859737 4.4859737 10.5013514 7.0302639 16.9725584 7.0302639s12.4865847-2.5442902 16.9725583-7.0302639c4.4859737-4.4859736 7.0302639-10.5013513 7.0302639-16.9725583s-2.5442902-12.4865847-7.0302639-16.9725583c-4.4859736-4.4859737-10.5013513-7.0302639-16.9725583-7.0302639z" fill="#96b4dc"/><path d="m45 14.0968956c8.3200863 0 16.0845954 3.2841104 21.8517946 9.0513097 5.7671994 5.7671993 9.0513098 13.5317084 9.0513098 21.8517947h-6.9002822c0-6.471207-2.5442902-12.4865847-7.0302639-16.9725583-4.3412649-4.3412649-10.1148538-6.8640956-16.3477716-7.0223415l-.6247867-.0079224c-6.471207 0-12.4865847 2.5442902-16.9725584 7.0302639-4.4859736 4.4859736-7.0302639 10.5013513-7.0302639 16.9725583h-6.9002821c0-8.3200863 3.2841103-16.0845954 9.0513097-21.8517947 5.611329-5.6113291 13.1134641-8.8719764 21.178439-9.0441288z" fill="#c0d2ea"/><path d="m45 0c24.8528137 0 45 20.1471863 45 45s-20.1471863 45-45 45-45-20.1471863-45-45 20.1471863-45 45-45zm0 14.0968956c-8.3200863 0-16.0845954 3.2841104-21.8517947 9.0513097-5.7671994 5.7671993-9.0513097 13.5317084-9.0513097 21.8517947s3.2841103 16.0845954 9.0513097 21.8517946c5.7671993 5.7671994 13.5317084 9.0513098 21.8517947 9.0513098s16.0845954-3.2841104 21.8517946-9.0513098c5.7671994-5.7671992 9.0513098-13.5317083 9.0513098-21.8517946s-3.2841104-16.0845954-9.0513098-21.8517947c-5.7671992-5.7671994-13.5317083-9.0513097-21.8517946-9.0513097z" fill="#14143c"/><g fill="#fff" transform="translate(6.434619 49.69283)"><path d="m1.62896699.16153473c-.34004979.12894972-.60959267.27653177-.8086286.44274614-.3471049.28969401-.51366148.6419012-.49966974 1.05662158.00757563.22454475.091418.41652787.25152708.5759494.16010909.15942153.37853942.23518958.65529098.22730414.24932573-.007104.46345624-.09577031.64239151-.26599892.11354988-.11102869.28167159-.34287303.50436512-.69553299l.38735569-.61307416c.11855596-.18456255.23959542-.33250026.36311832-.44381311.23512066-.20623163.49853655-.31350327.79024766-.32181495.3864549-.0110112.71206618.09782518.97683384.32650917.26476767.22868398.40372221.53778417.41686362.92730055.00541117.16038909-.03108479.35465427-.10948789.58279552-.07840307.22814126-.11706351.35825081-.11598127.39032862.00293749.08706837.027406.14657492.07340551.17851965.04599953.03194474.11044724.05591004.19334315.0718959l.00487007.14435019-1.62537243.20112108-.00568173-.16840855c.48730658-.12855852.82392595-.32220117 1.00985811-.58092794.18593215-.25872676.2747239-.51181888.26638401-.75927636-.00650217-.19246692-.07387271-.35854441-.20212034-.49823248-.12824764-.13968807-.3020748-.20640634-.52148145-.20015482-.19696732.00561216-.36340695.0653979-.49931884.17935723-.13840515.11403037-.28099495.28895709-.42776935.52478013l-.39425569.63047182c-.24623466.39461327-.47514175.67405905-.68672127.83833737-.21415008.16205807-.47082057.24734951-.77001145.25587431-.40141445.01143744-.74145369-.1182025-1.02011774-.38891983-.27866404-.27071734-.42530115-.62260128-.43991131-1.05565186-.00734373-.21767092.02986262-.44635848.11161909-.68606265.08175647-.23970418.12205493-.37674082.1208954-.4111099-.00278289-.08248582-.03208331-.13726776-.08790125-.16434579s-.11504724-.04431159-.17768788-.05170068l-.00521792-.15466092 1.62351716-.25611162z"/><path d="m4.81801226 8.03293217c.45890461-.0887564.73217943-.33136022.81982444-.72781145.04806309-.21310134.03793182-.46882696-.03039382-.76717687-.03236478-.14132364-.06752783-.22529822-.10548914-.25192373-.03796132-.02662552-.10942308-.02978794-.21438531-.00948727l-1.95522655.37815889c.01605004.12573833.02722126.20791101.03351363.24651807.00629238.03860706.01354837.07585644.021768.11174817.07243546.31629576.17827876.55585239.3175299.71866988.2537095.29529123.62466246.39572601 1.11285885.30130431zm-4.12106669-2.20029391c.08695682.257265.18121169.41004444.28276463.45833834.10155294.04829388.30733176.04246194.61733646-.01749584l3.24772653-.62814034c.26118507-.05051561.42492624-.12025178.49122351-.20920853.06629727-.08895673.08217535-.25893738.04763425-.50994192l.13913598-.02691018.4161186 1.81701824c.13356893.58324041.11253095 1.05348514-.06311395 1.41073416-.1756449.35724903-.46484837.5748225-.86761038.65272039-.51016524.09867068-.9192741-.00141217-1.22732658-.30024853-.30805248-.29883635-.5211573-.70622625-.63931443-1.2221697-.01695299-.07402667-.03682719-.16915733-.05962265-.28539195-.02279545-.11623463-.04061476-.20239235-.05345793-.25847316l-1.36206793.26343654c-.28315391.05476458-.45222695.12904587-.50721911.22284388-.05499216.093798-.06187848.28078028-.02065893.56094684l-.13547451.02620202-.44154807-1.92805823z"/><path d="m2.26585173 11.6477113c.12958116.2614456.24375798.4205545.34253048.4773269.09877248.0567724.28729713.0376812.56557393-.0572735l3.19550634-1.0903833c.26424605-.0901671.41830587-.1879739.46217948-.2934205.0438736-.1054467.01855827-.2948773-.07594598-.568292l.13329225-.0454825.78926663 1.9534559-.13329225.0454826c-.12256578-.2638395-.23791184-.4225495-.34603817-.4761301s-.29431252-.0352874-.55855857.0548797l-3.19550634 1.0903833c-.2782768.0949547-.43467508.1935595-.46919484.2958144-.03451977.1022548-.00803521.2912865.07945365.567095l-.12978456.0442856-.78926661-1.9534559z"/><path d="m4.0904286 15.7034168c.16400323.2124663.29744718.3362073.40033182.3712231.10288464.0350159.28051026-.0125211.53287687-.1426104l2.97292215-1.5324759c.2371376-.1222393.37201194-.2351322.40462307-.3386789.03261112-.1035467-.01193936-.2737674-.13365144-.5106623l.12400773-.0639232 1.05984937 1.7364146-.12400773.0639233c-.1509498-.2191952-.28363729-.3498971-.39806247-.3921059-.11442519-.0422087-.28259206-.0061186-.50450062.1082703l-3.21114753 1.6552758c-.07396953.0381297-.12514929.079625-.1535393.1244856-.02838999.0448608-.02422765.1090817.01248702.1926627.02154068.0493488.04678233.1000754.07572495.1521797.02894264.0521043.0861252.1481328.17154773.2880856.33314781.545816.60724758.8894588.82229929 1.0309283.21505172.1414696.57873267.1984389 1.09104285.170908l.09518508.1559475-1.34154151.2972789-2.01719171-3.3048858z"/><path d="m7.68604249 21.1498929c.20287562.1819274.35834168.2816196.46639817.2990768.1080565.0174571.27349683-.0586365.49632097-.2282807l2.62490697-1.9984374c.2093779-.1594071.3199842-.2927338.3318191-.3999801.0118348-.1072464-.0652722-.2673403-.2313213-.4802821l.1094912-.0833597 1.3821051 1.533147-.1094912.0833597c-.1913502-.1907021-.3474331-.2973669-.4682487-.3199943-.1208156-.0226273-.2791892.0406439-.4751208.1898138l-2.83524524 2.1585757c-.06531052.0497234-.10754416.0989942-.12670092.1478127-.01915675.0488186-.00250564.1113069.0499533.1874651.03083883.0449889.06558776.0907218.10424681.137199.03865905.046477.11368653.1315005.22508245.2550702.43444409.4819219.7712721.7747111 1.0104841.878368.2392119.1036568.6081126.0996462 1.106702-.0120316l.1241269.1376919-1.2615836.5139622-2.63053514-2.9180103z"/><path d="m12.2856621 25.9170407c.2347433.1460128.4069712.2188117.5166838.218397.1097126-.0004149.2578632-.1022444.4444518-.3054884l2.1980461-2.3942491c.175329-.1909793.258478-.3402071.2494471-.4476836-.009031-.1074765-.1157862-.2524812-.3202656-.4350142l.0916859-.09987 3.1115026 2.4124426-.6893397.7881989-.1487115-.1153005c.1691886-.2767197.2363828-.488555.2015828-.6355062-.0348002-.1469511-.2237904-.3534659-.5669709-.6195441l-.7950347-.6164145c-.085795-.0665196-.1503639-.0948374-.1937062-.084953-.0433425.0098843-.0971843.0498684-.1615251.1199526l-1.1026422 1.2010668.9008487.6984554c.249759.1936458.4403229.2829105.5716912.2677941.1313685-.0151164.3137321-.1106643.5470905-.286644l.1372722.1064313-1.1436595 1.2457455-.1372722-.1064313c.1475634-.2424992.2179909-.4240847.2112831-.5447562-.006708-.1206717-.1339883-.2770913-.3818408-.4692588l-.9008487-.6984555-1.2232814 1.3324746c-.0981199.1068783-.1193254.1984096-.0636167.2745939.0557087.0761844.2665927.2561848.6326518.5400016.3965641.3074682.7258146.4945136.9877517.5611358.2619369.0666223.6089602.0050139 1.0410697-.1848254l.1630107.1263872-1.100788.703131-3.1658395-2.4545718z"/><path d="m17.7311277 29.8534712c.2943348.1117171.5073419.1422141.639021.091491.1316792-.0507233.2932653-.2395953.4847585-.5666163l1.4752072-2.5192725c.1312083-.2240699.1781715-.3889274.1408893-.4945725-.037282-.105645-.188566-.2318739-.453852-.3786864l.0673772-.1150629 1.3344342.6599247-.2698151 3.9002512 3.3241866-2.3897568 1.3443189.6648131-.0673771.1150629c-.2598689-.1076886-.4458467-.1456443-.5579333-.1138674-.1120867.0317769-.2325522.1576816-.3613963.3777142l-1.615281 2.7584825c-.1323903.2260885-.1809591.3888504-.1457061.4882855.035253.0994352.1721754.2211648.4107672.3651891l-.0656042.1120349-1.8912721-.9353007.0656041-.1120349c.2841989.1145142.4801869.1535156.5879642.1170042.1077772-.0365113.2384997-.185979.392167-.4484032l1.6312388-2.7857342-3.7939451 2.6767866-.092257-.0456244.2854365-4.2244359-1.4486109 2.4738529c-.1985856.3391328-.2742042.5867891-.2268557.7429685.0312833.1013769.1617438.2244666.3913817.3692692l-.0656042.112035-1.5848464-.7837624z"/><path d="m29.3179461 29.7181573-.0383221.1258299c-.1716098-.0489004-.3050234-.0701229-.4002407-.0636675s-.1572807.0571452-.1861903.1520694c-.0087402.0286982-.0124589.0664242-.0111563.1131783.0013028.0467543.0164195.1119393.0453504.1955556l.632918 1.7874602 1.5252616-1.2573536c.0627357-.0528973.1070966-.0986185.1330824-.1371636.0259859-.038545.0420042-.0677515.0480551-.0876195.0295819-.0971317-.0073713-.1756699-.1108596-.2356146-.0612092-.0371677-.1731506-.0778623-.3358241-.1220836l.0383222-.1258299 1.6142409.4151961-.038322.1258299c-.15095-.0316842-.2967068-.0251354-.4372707.0196462-.2181957.070043-.4898024.2346596-.8148198.4938495l-1.5576905 1.2490125-.402382 1.3212134c-.0800057.2626974-.083684.438501-.0110348.5274108.0726492.0889096.2675643.182487.5847455.2807319l-.0373136.1225185-2.2556136-.5801625.0373136-.1225185c.3392766.068221.5604121.0757042.6634066.0224496.1029945-.0532547.1995369-.2277872.2896275-.5235977l.3590175-1.1788269-.569331-1.5497217c-.1974177-.5340121-.3440574-.8817849-.4399192-1.0433182-.0958619-.1615334-.2385339-.2714291-.4280162-.3296874l.0383222-.1258298z"/><path d="m33.4054245 35.2088582c.3182731-.0097836.5260072-.0627338.6232021-.1588503.0971949-.0961166.1596362-.3294207.1873236-.6999126l.2314988-3.0977237-.0960609-.1198026c-.1029285-.1282782-.1925198-.2091847-.2687741-.2427196-.0762544-.0335348-.1926013-.0575369-.3490408-.0720059l.0097419-.1303582 1.3102444.0826947 2.6924733 3.5683398.1756109-2.349879c.028884-.3865008-.0145307-.641996-.130244-.7664855-.0764835-.0806538-.2544762-.1412896-.5339782-.1819078l.0097419-.1303583 1.7955202.1133223-.0097419.1303583c-.2932164.0090672-.4921975.0619953-.5969437.1587841-.1047462.0967889-.1708775.3292857-.1983942.6974907l-.2763627 3.6980576-.1306512-.008246-3.0940994-4.0658803-.2045802 2.7375231c-.028713.3842137.0135429.638487.1267676.7628194.0739948.0804966.2480838.143184.5222667.1880621l-.0094856.1269277-1.7955201-.1133223z"/><path d="m42.5985112 34.8705369c.0160293.1136682.0569123.1850802.122649.214236.0657366.0291557.1938452.0323909.3843254.0097056.5937045-.0707074 1.0670461-.2368785 1.4200246-.4985133.5419515-.4020292.7563438-1.0042924.6431771-1.8067897-.1009845-.7161093-.4193928-1.2260243-.9552246-1.5297446-.4591929-.2596821-1.0314063-.3487191-1.7166404-.267111-.1706899.0203285-.2839342.0511518-.3397329.0924704-.0557985.0413185-.0755229.1199485-.0591729.23589zm-1.3815472.5840811c.2732151-.0602772.4473084-.1278196.5222797-.2026273.0749715-.0748079.0938633-.2440668.0566753-.5077769l-.4380804-3.1065508c-.0359057-.2546166-.0998051-.4134377-.1916982-.476463-.091893-.0630254-.2801268-.0868385-.5647011-.0714393l-.0182735-.1295817 2.0482808-.2439408c.6901815-.0821975 1.2887379-.0471518 1.7956692.1051371.9137682.2725791 1.4387769.8919583 1.5750258 1.8581377.0490497.3478247.0183897.6878057-.0919802 1.0199432-.1103697.3321375-.3061741.6247518-.5874133.8778427-.1786664.1599708-.3694026.2878619-.5722086.383673-.3697877.1781096-.8379281.3008976-1.4044212.3683643l-2.1113618.2514534z"/><path d="m48.8927146 34.2705491c.2917991-.1030779.471513-.1982051.5391422-.2853818.067629-.0871767.0582775-.2612652-.0280545-.5222656l-.9913674-2.9971181c-.0819792-.2478408-.1789104-.3950679-.2907936-.4416813-.1118834-.0466135-.3191657-.0348309-.6218468.0353477l-.0413524-.1250169 2.1694438-.6060363.0413525.125017c-.2939756.096498-.4733268.1927218-.5380539.2886717-.0647273.0959498-.0561012.267845.025878.5156856l.9913674 2.9971182c.0863319.2610005.1839886.4104209.2929699.4482612.1089815.0378404.3159009.0249611.6207587-.0386377l.040264.1217271-2.1694438.6060363z"/><path d="m53.6410837 27.5846265c.2659635-.1211444.5457353-.206363.839315-.2556557.2935799-.0492927.459367-.0825922.4973619-.0998985.0983394-.0447928.1587669-.0940644.1812822-.1478145s.0305762-.1201051.0241826-.199065l.1508617-.0687163.769808 1.3034308-.1575666.0717705c-.3058608-.2418999-.5740967-.4037143-.8047076-.4854436-.412227-.1397222-.8351344-.1108355-1.268722.0866604-.4402926.20055-.7446992.5304529-.9132194.9897088s-.0627991 1.0411323.3171633 1.7456291c.3134967.5812611.7248188.9593364 1.2339662 1.1342257.5091474.1748894 1.0084522.1508609 1.4979145-.0720855.0826946-.0376666.1760394-.0891393.2800344-.1544178.1039952-.0652785.1979717-.1362276.2819297-.2128473.1365678-.1236097.2152737-.2125486.2361177-.2668167.0208438-.054268.0124339-.1163188-.02523-.1861524l-.5433573-1.0074508c-.130716-.2423633-.2495726-.376275-.3565698-.4017353-.1069971-.0254602-.2906498.0121391-.5509577.1127978l-.0631425-.1170738 1.7499956-.7971095.0631425.1170738c-.1643204.0876392-.2633402.1647233-.2970597.2312523-.0584211.1084824-.0322434.2654201.0785328.4708127l.6696421 1.2415984c.0398795.0739415-.1041856.2623701-.4321953.5652863-.3280096.302916-.674166.5373426-1.038469.7032799-.6704963.3054059-1.3328775.3832463-1.9871433.2335214-.7211405-.1653174-1.261722-.581739-1.6217447-1.2492651-.3168199-.587423-.3859552-1.1827658-.2074059-1.7860283.195516-.6647194.6609296-1.1645434 1.3962407-1.4994718z"/><path d="m60.2762211 29.4173622c.2157999-.1929506.3289674-.3390495.3395025-.4382967.0105351-.0992471-.0863953-.2689461-.2907912-.509097l-2.0447268-2.4024122c-.1690492-.198621-.3118419-.3040684-.4283782-.3163425-.1165362-.0122739-.2919639.0541622-.5262831.199308l-.0875984-.1029217 1.6769745-1.2054069.0875982.1029219c-.2097301.1740361-.3226399.3148567-.3387291.4224616-.0160891.1076048.0603909.2607177.2294402.4593389l.9197812 1.0806792 1.8302306-1.3155671-.9197814-1.0806792c-.1690491-.198621-.3113507-.3044217-.4269045-.3174016-.1155539-.0129801-.2914728.0538089-.5277569.2003671l-.0875982-.1029219 1.6769745-1.2054067.0875982.1029217c-.2097303.1740363-.3221487.3145038-.3372555.4214025s.0618645.2596586.2309138.4582797l2.100052 2.4674153c.1721228.2022324.3152997.3081312.4295307.3176967.1142312.0095655.290043-.0564192.5274359-.1979538l.085293.1002133-1.6769744 1.2054069-.085293-.1002133c.2193015-.1925573.3333444-.3385578.3421287-.4380017.0087843-.0994438-.0890215-.2692413-.2934174-.5093922l-.917476-1.0779706-1.8302306 1.315567.9728013 1.1429739c.1721229.2022324.3161753.3082296.4321571.3179918.1159818.0097621.2919007-.057027.5277568-.2003672l.085293.1002134-1.6769745 1.2054067z"/><path d="m66.2031837 24.8388523c.1625025-.213438.2443779-.3705664.2456265-.4713852.0012486-.1008189-.1072486-.2385289-.3254919-.41313l-2.5709418-2.0568318c-.2050732-.1640647-.3661483-.2427807-.4832251-.2361477s-.2764995.1024812-.4782678.2875446l-.1072403-.0857955 2.6730039-2.8217104.8468978.645631-.1277538.1348611c-.2984559-.159751-.5278967-.2247765-.6883221-.1950763-.1604255.0297001-.3880466.2001592-.6828632.5113773l-.6829917.7209885c-.0737041.0778045-.1055149.1366966-.0954321.1766761.0100827.0399795.0527522.0900729.1280085.1502802l1.2897041 1.0318025.7738935-.8169474c.214561-.2264976.3146358-.4002192.3002242-.521165-.0144115-.1209457-.1155444-.2899959-.3033987-.5071503l.1179267-.1244872 1.3376799 1.0701846-.1179265.1244872c-.2615585-.1393498-.4580364-.2068777-.5894339-.2025837-.1313974.0042941-.3035577.1188254-.5164807.3435941l-.7738937.8169474 1.4308095 1.1446912c.1147659.0918161.2140256.1127196.297779.0627105s.2828656-.2409966.5973367-.5729625c.340677-.3596298.549288-.6592725.6258332-.8989282.0765451-.2396558.0148905-.5594822-.1849638-.9594792l.1400377-.1478286.7479671 1.0223836-2.719683 2.8709867z"/><path d="m70.9319336 18.5031543c.1077607.057709.194268.0715345.2595216.0414763.0652537-.0300582.1462338-.1213411.2429401-.2738485.3014225-.4753481.4470954-.9213435.4370186-1.3379864-.0157509-.6398973-.4040219-1.163559-1.164813-1.5709851-.678893-.3635672-1.31276-.4430078-1.901601-.2383218-.5041052.175775-.9301037.5379779-1.2779954 1.0866087-.086659.1366626-.1292095.2379128-.1277319.3037506.0016385.0658379.0573755.1281884.1672914.1870517zm-.3397779 1.362203c.1148011-.2356793.1628407-.4036365.1441186-.5038716-.0187221-.1002353-.1530858-.2172953-.4030908-.3511803l-2.9451024-1.5771893c-.241384-.1292683-.4172824-.1796892-.5276949-.1512627-.1104126.0284267-.2458275.1509183-.406245.3674753l-.1228473-.0657884 1.0399077-1.6399507c.3504038-.5525921.7459425-.9669254 1.1866163-1.2429997.7926732-.4988147 1.6469932-.5029584 2.5629598-.0124312.3297482.1765897.6040842.4064174.8230086.6894831.2189244.2830656.3516359.6042008.3981345.9634058.0288389.2277003.0226592.4446067-.0185389.6507193-.0721781.3778994-.2520707.7936298-.539678 1.2471909l-1.0719339 1.6904565z"/><path d="m74.2381375 13.5894444c.0634581-.2538831.0751793-.4277646.0351632-.5216444-.040016-.0938797-.1968215-.1841026-.4704165-.2706687l-3.2229972-1.019763c-.2570852-.0813423-.4385325-.0987494-.5443424-.0522214-.1058098.0465279-.2144356.1903546-.3258774.43148l-.134439-.0425367 1.3252571-3.53736721 1.0486594.30634146-.0633394.16906535c-.3418799-.04513613-.5811045-.02627424-.717674.05658562-.1365694.08285987-.2779381.31936518-.4241062.70951598l-.3386226.9038493c-.0365421.0975377-.0419766.1630964-.0163037.1966759.025673.0335796.0856809.0652945.180024.0951449l1.6168055.5115606.3836911-1.0241458c.1063779-.2839431.1281914-.4794818.0654404-.58661605-.062751-.10713426-.2255294-.22894636-.4883352-.36543628l.0584673-.15606032 1.6769491.5305902-.0584673.15606035c-.2993478-.0389523-.5090412-.0337788-.62908.0155204-.1200389.0492992-.2328413.2148366-.3384071.4966121l-.3836911 1.0241459 1.7936988.56753c.1438732.0455218.244414.0306627.3016221-.0445774.057208-.0752401.1637683-.3209405.319681-.7371014.1689053-.4508409.2398965-.8005302.2129736-1.0490679-.0269229-.2485378-.2146842-.5237207-.5632839-.82554889l.0694299-.18532162 1.1108219.68967531-1.3484003 3.5991411z"/><path d="m76.2668037 7.49973768c.011796-.29245189-.0310482-.4866121-.1285329-.58248061-.0974846-.0958685-.3463274-.1695401-.7465284-.2210148l-3.3461253-.43038566-.1368053.07962195c-.1464889.08532057-.240619.16175132-.28239.22929225-.0417709.06754094-.0760182.17250639-.1027416.3148964l-.1408114-.01811148.1820403-1.19528441 4.0628887-2.21689099-2.538312-.32648304c-.4174936-.05369891-.697879-.03189473-.841156.06541257-.0929324.06443253-.1712856.22332895-.2350598.47668927l-.1408114-.01811146.2494626-1.63798235.1408114.01811147c-.0108088.26943169.032628.4555666.1303104.55840471.0976826.10283813.3453891.17983566.7431198.23099261l3.9945992.51379374-.0181521.1191879-4.6312314 2.55002253 2.9570409.38034081c.4150233.05338117.6940006.03255322.8369319-.06248382.0925866-.06216228.1728915-.21733559.240915-.46551993l.1371058.01763484-.2494626 1.63798236z"/></g><path d="m68.2662594 12.9131303 1.1615323.903026-1.6437756 4.074169c-.2849649-.2364522-.5735832-.4686542-.8657578-.6965087l.3553246-.8155804-.9951882-.7948539.1727951-.1318218-.9305952.7046931c-.3014582-.21287-.6062841-.4212878-.9143826-.6251582zm-47.4031656-.4580996.566887.7047341-.9436074.767981 2.1608568 2.7288065-.8245996.6472488-2.1702444-2.7231013-.9428309.7334128-.5714958-.7033982zm47.4183663 1.6102545-1.3474199 1.0205602.6756276.5211185zm-45.6423171-2.7961487 2.4383185 3.6786449-.8748148.5945096-2.455533-3.6869956zm44.2932281 3.8154308-.4811813.3669932.4828505-.365715zm-3.7164454-5.41147228 1.6466123.96873068c.6592849.3893437.9450133.8538198.8571852 1.3934284-.1706138.7323947-.6419307 1.2469236-1.4667386 1.2232038l-.0080731.2134654c-.0151869.4192907-.0334115 1.0152816-.0546738 1.7879729-.3384689-.2174246-.680778-.429412-1.0267893-.6358388l.0969274-1.6616259-.568558-.3335502-.7636841 1.290485c-.3085507-.1681231-.6197953-.3319248-.9336528-.4913239zm-38.5179051.35601008 1.6902101 3.0649005 1.5421897-.8573409.434948.7987424-2.4553526 1.3743265-2.147752-3.8532193zm3.5430876-1.75198639 1.3554108 3.21525009 1.6271304-.6997886.3619127.8407491-2.5969985 1.1271083-1.7332153-4.05661209zm35.4191987 2.71030789-.5330639.9069419.713402.3993064c.2608803.1460203.5905941.0577994.7436955-.1989892.0038182-.0064041.0074967-.0128906.0110328-.0194547.1346874-.2500179.0411933-.5618831-.2088246-.6965704zm-4.407876-3.18795641 2.9522513 1.31159226-.3711903.84005403-1.9808084-.87883557-.3440617.78670137 1.5850087.70056062-.3557188.8218468-1.5802328-.7052957-.7454701 1.5651033c-.1748387-.0722107-.3503606-.1431028-.5265533-.2126639l-.4460934-.2007849zm-25.8363638-1.38492936 2.5034474 3.85102907-1.0591991.3331307-.5811189-.94998663-1.2219226.35930103-.008657-.21176503.0493629 1.32012763-1.041592.3200951-.0462639-4.58841464zm20.014287-.46201026 2.9820627.80636176-.2352069.88777853-1.9548819-.53090016-.210151.7555024 1.589886.44804705-.235164.83264554-1.5864536-.43094493-.2364622.88362774 2.0059278.5394167-.233705.8852836-3.0197091-.8183001zm-13.7905359.99289918.1386026.87371268c.1488991.93861903-.4756037 1.8254808-1.409492 2.00163186l-.1522681.028721-1.7098574.27116941-.743841-4.3422075 1.8672965-.27210652.047563-.00686025c.9393261-.13548384 1.8133025.50861355 1.9619964 1.44593932zm12.4833888-.73670155-.0379267.02123116-.0730718.04163325-.0660394.03798908-.4208813.24353695c-.106035.06109697-.1987957.1139679-.25275.14303706-.2629897-.37992487-1.423731-.73550965-1.4562025-.05986278-.018588.64842225 1.5187134.34022753 1.9023658 1.31573051.0755381.16777752.1101138.36516354.0959705.59782215-.0768261.75165904-.4837668 1.1935552-1.220822 1.32568848-.1835755.03366799-.3656347.0448188-.5426448.03786603l.0003734-.0011318c-.1825361-.02793013-.365517-.05450853-.5489325-.07972464l-.0003729.00116198c-.6913092-.17391485-1.2216632-.5908847-1.3169033-.90839328.1784718-.0877703.6771926-.39803292.8556528-.48339204.2672772.40309243 1.5292206.81714967 1.5883407.11896525.0294513-.45605653-.641461-.46250031-1.1774214-.73913268-.4681446-.20116435-.7579267-.54564618-.743191-1.13487019.0472764-.72783935.4132324-1.16792166 1.097868-1.32024692 1.0809987-.24518473 2.1450802.44656917 2.3165884.84209243zm-19.084837 2.97682563-.0145959.00064668.18.60683215zm10.6960635-4.28469426.0506436.91701048-2.0232605.09917566.0335976.78346575 1.6505256-.06518374.0336474.86456263-1.6419762.08038812.0481668.91345082 2.0744397-.10684998.0513011.91417347-3.1247826.15489183-.2375922-4.4004726zm1.2781628.01733673 1.0730511.04860717-.1912377 3.48402066 1.7692222.08432119-.0432753.91431231-2.8282585-.12541092zm-12.0499636 2.5782589.0631455 1.68909863.8143995-.254528zm4.5325799-1.06751778-.5331009.08443488.4006518 2.52961572.5331009-.08443488c.5311168-.08412064.8934787-.58286916.8093581-1.11398598l-.096024-.60627154c-.0841206-.53111682-.5828691-.89347884-1.1139859-.8093582z" fill="#fff"/><path d="m34.5010941 38.2653905-.0062243.0109201c-.1088247.1933482-.5638251 1.1127702-.6638644 1.5447344-1.1263259-.2419037-2.5023107-.1076106-2.9804187 1.5131485-.3731952 2.5117352 3.1923729 3.9631506 4.2446476 5.7549507.511304 1.1276349.1321262 2.3524838.1803476 3.2515775-.4706871 0-1.0586103-.0732479-1.675499-.0084102-.3462918-3.289721-2.2850821-4.4412681-3.481443-5.8361648-1.006362-1.1733678-1.4198595-3.3012256-.4807063-4.6850776 1.7659462-2.5256912 4.4790096-1.6364075 4.8631605-1.5456786zm8.5180857.278824.0005053.1972751c.0007859.2068648.0022439.4967247.0025661.7861467v.2461978c-.0003293.1692956-.0012084.3298575-.0030714.4637012-1.4619912 0-2.283956-.8977985-3.4092137-1.2660549-1.2255553-.4010802-2.4572298 0-2.7990526 1.181062-.7660329 3.1568711 2.6473251 3.9198636 3.7328367 6.3328071.4372596 1.3151421-.2974202 2.8404221-.3489374 3.846962h-1.7962446c.1030008-4.1626985-1.7250013-5.0898795-2.8182982-7.0081665-.8947527-1.5699237-1.0192028-3.4037942.1882083-4.8344538 2.9976324-3.1051661 5.9590885 0 7.2507015.0545233zm12.4797261-.278824c.3841509-.0907289 3.0972142-.9800126 4.8631605 1.5456786.9391531 1.383852.5256556 3.5117098-.4807064 4.6850776-1.1963608 1.3948967-3.1351512 2.5464438-3.481443 5.8361648-.6168886-.0648377-1.2048118.0084102-1.6754989.0084102.0482214-.8990937-.3309564-2.1239426.1803475-3.2515775 1.0522748-1.7918001 4.6178429-3.2432155 4.2446477-5.7549507-.4781081-1.6207591-1.8540929-1.7550522-2.9804187-1.5131485-.102081-.4407797-.573759-1.3891166-.6700887-1.5556545zm-8.4792695.278824c1.2916128-.0545233 4.2530691-3.1596894 7.2507015-.0545233 1.2074109 1.4306596 1.082961 3.2645301.1882083 4.8344538-1.0932969 1.918287-2.921299 2.845468-2.8182982 7.0081665h-1.7962448c-.051517-1.0065399-.7861968-2.5318199-.3489372-3.846962 1.0855116-2.4129435 4.4988696-3.175936 3.7328367-6.3328071-.3418228-1.181062-1.5734973-1.5821422-2.7990526-1.181062-.3600825.1178421-.6891078.2899092-1.0179866.4694304l-.0925188.0506484-.1202044.0658809c-.6306717.3448185-1.2850811.6800952-2.1785039.6800952l-.0008811-.0718184c-.0013278-.1233898-.001969-.2644642-.0022488-.4115608v-.1477356l.000539-.3140277c.0008613-.302402.002454-.5793996.0025827-.729684zm-2.0002284-1.3123236v13.03857h-.9048613c.0109125-.6524916-.8018366-1.8026562-.8018366-3.078154 0-1.2754977.8018366-2.4655997.8018366-4.2563927v-5.7040233zm0 0v13.03857h.9048615c-.0109125-.6524916.8018366-1.8026562.8018366-3.078154 0-1.2754977-.8018366-2.4655997-.8018366-4.2563927v-5.7040233zm-11.4193251 14.4355598h22.8598307v1.6509877h-22.8598307zm0 2.9209783h22.8598307v1.6509878h-22.8598307zm12.1813265-27.9292098v1.8097154l1.7356538.0000213v1.5239886l-1.7356538-.0000212.0000275 1.707272c.9598081.3155278 1.6527921 1.2190704 1.6527921 2.2844682 0 1.3278198-1.0764108 2.4042306-2.4042308 2.4042306-1.3278199 0-2.4042306-1.0764108-2.4042306-2.4042306 0-1.0575543.682818-1.9556279 1.6316372-2.277404l.0000159-1.7143362-1.7356539.0000212v-1.5239886l1.7356539-.0000213v-1.8097154zm-.7619945 6.4032945c-.4997449 0-.9048682.4051233-.9048682.9048683 0 .4997449.4051233.9048682.9048682.9048682.499745 0 .9048684-.4051233.9048684-.9048682 0-.499745-.4051234-.9048683-.9048684-.9048683z" fill="#14143c"/></g></svg>