<svg height="30" viewBox="0 0 73 30" width="73" xmlns="http://www.w3.org/2000/svg"><g fill="none" fill-rule="evenodd" transform="translate(.739)"><rect fill="#888" height="9.545" rx="1.364" width="9.545" x="35.37" y=".74"/><g fill="#999"><circle cx="32.044" cy="13.519" r="5.356"/><path d="m2.836 28.8c-1.59 0-2.597-1.154-2.597-2.98 0-1.81 1.019-2.976 2.597-2.976 1.254 0 2.21.763 2.393 1.914h-.727c-.184-.756-.843-1.25-1.666-1.25-1.127 0-1.858.91-1.858 2.312 0 1.414.723 2.317 1.862 2.317.847 0 1.454-.407 1.662-1.11h.727c-.264 1.138-1.119 1.773-2.393 1.773zm4.61-3.83c-.674 0-1.162.49-1.21 1.218h2.37c-.017-.731-.48-1.219-1.16-1.219zm1.143 2.504h.687c-.12.74-.866 1.27-1.785 1.27-1.21 0-1.974-.842-1.974-2.177 0-1.334.767-2.209 1.942-2.209 1.15 0 1.87.811 1.87 2.113v.272h-3.094v.04c0 .819.504 1.35 1.27 1.35.54 0 .96-.255 1.083-.659zm1.211 1.23v-4.306h.656v.7h.016c.271-.488.699-.74 1.366-.74.947 0 1.494.607 1.494 1.586v2.76h-.695v-2.64c0-.703-.328-1.087-1.007-1.087-.707 0-1.134.488-1.134 1.227v2.5zm4.423-5.277h.696v.971h.839v.575h-.84v2.585c0 .396.168.575.536.575.084 0 .252-.012.3-.02v.588c-.084.02-.284.036-.448.036-.779 0-1.083-.324-1.083-1.151v-2.613h-.599v-.575h.6v-.97zm3.645 1.542c-.676 0-1.163.492-1.211 1.219h2.37c-.017-.731-.48-1.219-1.16-1.219zm1.142 2.505h.687c-.12.74-.867 1.27-1.786 1.27-1.21 0-1.973-.842-1.973-2.177 0-1.334.767-2.209 1.942-2.209 1.15 0 1.87.811 1.87 2.113v.272h-3.093v.04c0 .819.503 1.35 1.27 1.35.54 0 .96-.255 1.083-.659zm1.211 1.23v-4.306h.655v.7h.016c.128-.452.54-.74 1.043-.74.124 0 .228.012.288.024v.683a1.449 1.449 0 0 0 -.38-.04c-.56 0-.927.408-.927 1.015v2.665h-.695zm4.26 0v-3.73h-.6v-.576h.6v-.4c0-.795.348-1.15 1.147-1.15.135 0 .255.012.387.036v.575a1.646 1.646 0 0 0 -.323-.032c-.36 0-.512.168-.516.571v.4h.84v.575h-.84v3.732h-.695zm3.6.04c-1.21 0-1.985-.858-1.985-2.193 0-1.338.775-2.193 1.985-2.193s1.986.855 1.986 2.193c0 1.335-.775 2.194-1.986 2.194zm0-.619c.803 0 1.279-.587 1.279-1.574 0-.99-.476-1.574-1.279-1.574s-1.278.588-1.278 1.574c0 .987.48 1.574 1.278 1.574zm2.458.58v-4.307h.655v.7h.016c.128-.452.54-.74 1.043-.74.123 0 .227.012.287.024v.683a1.449 1.449 0 0 0 -.38-.04c-.559 0-.926.408-.926 1.015v2.665zm7.62-.648v.648h-3.5v-5.765h.719v5.117h2.78zm3.955-3.659v4.307h-.655v-.711h-.016c-.268.495-.711.75-1.37.75-.943 0-1.49-.607-1.49-1.585v-2.761h.695v2.64c0 .708.331 1.087 1.006 1.087.707 0 1.135-.487 1.135-1.226v-2.501zm2.318 4.347c-1.083 0-1.846-.88-1.846-2.194s.76-2.193 1.83-2.193c.615 0 1.11.268 1.374.74h.016v-2.41h.695v6.017h-.663v-.727h-.012c-.28.495-.771.767-1.394.767zm.124-3.768c-.755 0-1.259.623-1.259 1.574 0 .955.504 1.574 1.259 1.574.747 0 1.254-.635 1.254-1.574 0-.935-.507-1.574-1.254-1.574zm4.443 3.768c-1.21 0-1.986-.86-1.986-2.194 0-1.338.775-2.193 1.986-2.193 1.21 0 1.985.855 1.985 2.193 0 1.335-.775 2.194-1.985 2.194zm0-.62c.803 0 1.278-.587 1.278-1.574 0-.99-.475-1.574-1.278-1.574s-1.279.588-1.279 1.574c0 .987.48 1.574 1.279 1.574zm2.457.58v-4.307h.655v.7h.016c.204-.46.664-.74 1.223-.74.583 0 1.019.296 1.206.815h.016c.244-.511.751-.815 1.355-.815.85 0 1.402.551 1.402 1.406v2.94h-.695v-2.78c0-.595-.332-.947-.907-.947s-.987.428-.987 1.019v2.709h-.695v-2.865c0-.52-.356-.863-.895-.863-.575 0-.999.452-.999 1.055v2.673zm7.943-.564c.703 0 1.218-.455 1.218-1.074v-.348l-1.126.072c-.647.04-.983.276-.983.691 0 .4.348.66.89.66zm-.148.604c-.875 0-1.454-.504-1.454-1.267 0-.739.567-1.174 1.614-1.238l1.206-.072v-.36c0-.535-.351-.83-.986-.83-.5 0-.871.255-.955.662h-.667c.02-.727.727-1.282 1.63-1.282 1.018 0 1.673.543 1.673 1.39v2.957h-.659v-.747h-.016c-.243.479-.783.787-1.386.787zm2.725-.04v-4.307h.655v.7h.016c.272-.488.7-.74 1.367-.74.947 0 1.494.607 1.494 1.586v2.76h-.695v-2.64c0-.703-.328-1.087-1.007-1.087-.707 0-1.135.488-1.135 1.227v2.5h-.695zm4.236 0v-4.307h.695v4.307zm.347-5.002c-.24 0-.44-.2-.44-.44 0-.243.2-.439.44-.439a.44.44 0 0 1 0 .879zm2.986 2.087a1.245 1.245 0 1 0 0-2.49 1.245 1.245 0 0 0 0 2.49zm0 .273a1.517 1.517 0 1 1 0-3.035 1.517 1.517 0 0 1 0 3.035zm-.449-2.243v.714h.46c.238 0 .374-.129.374-.358 0-.223-.145-.356-.385-.356zm0 .92v.738h-.232v-1.865h.712c.36 0 .594.22.594.556 0 .26-.14.461-.374.535l.431.774h-.272l-.4-.738z" fill-rule="nonzero"/></g></g></svg>