<svg height="24" viewBox="0 0 133 24" width="133" xmlns="http://www.w3.org/2000/svg"><g fill="none" fill-rule="evenodd"><path d="m0 0h133.419v24h-133.419z"/><path d="m100.529.942h18.942a9.768 9.768 0 0 1 9.768 9.768c0 5.394-4.373 9.767-9.768 9.767h-18.942c-5.395 0-9.768-4.373-9.768-9.767a9.768 9.768 0 0 1 9.768-9.768z" fill="#95b5de"/><circle cx="119.716" cy="10.71" fill="#fefffd" r="8.619"/><path d="m116.903 7.484h2.194v6.451h-2.194zm3.355 0h2.194v6.451h-2.194z" fill="#00013a"/><g fill="#feffff"><path d="m65.987 2.839v9.26c0 3.793-3.004 6.869-6.71 6.869-3.705 0-6.71-3.076-6.71-6.87v-9.26h2.72v9.718c0 2.205 1.725 3.998 3.869 4.043h.081c2.155 0 3.906-1.765 3.95-3.96v-9.8zm-16.78 0v2.706h-9.026v4.005h7.973v2.706h-7.973v6.712h-2.581v-16.129zm-39.1 0h.1a5.018 5.018 0 0 1 1.238 9.855l-.402.104 4.763 6.17h-3.627l-4.212-5.785h-3.4v5.785h-2.754v-16.13h8.294zm-.636 2.461h-5.047v5.602h5.047a2.801 2.801 0 0 0 .076-5.601zm16.194-2.461a8.065 8.065 0 1 1 0 16.129 8.065 8.065 0 0 1 0-16.13zm0 2.468c-2.902 0-5.254 2.506-5.254 5.596s2.352 5.596 5.254 5.596c2.901 0 5.253-2.505 5.253-5.596 0-3.09-2.352-5.596-5.253-5.596z"/><path d="m75.466 18.968c3.749-.044 5.665-1.582 5.747-4.615a4.417 4.417 0 0 0 -1.089-2.96c-.733-.863-1.867-1.397-3.401-1.6a49.588 49.588 0 0 1 -1.841-.25c-.808-.145-1.396-.406-1.763-.784-.366-.37-.55-.783-.55-1.24.015-.762.289-1.335.82-1.72.509-.37 1.145-.555 1.908-.555a7.67 7.67 0 0 1 4.053 1.219l1.38-1.98c-1.504-1.053-3.274-1.6-5.31-1.644-1.69.014-2.997.442-3.917 1.284-.95.849-1.426 1.966-1.426 3.352 0 1.154.378 2.133 1.134 2.938.734.784 1.804 1.288 3.21 1.513.786.11 1.509.207 2.167.294 1.437.24 2.148.95 2.133 2.133-.03 1.444-1.108 2.18-3.233 2.21-1.796-.015-3.345-.541-4.647-1.579l-1.628 1.807c1.744 1.451 3.828 2.177 6.253 2.177z" fill-rule="nonzero"/></g></g></svg>