<svg height="24" viewBox="0 0 47 24" width="47" xmlns="http://www.w3.org/2000/svg"><g fill="none" fill-rule="evenodd"><path d="m38.938 12.491c1.602 0 2.902 1.3 2.902 2.902v.526h-2.154v-.484a1.004 1.004 0 0 0 -2.007-.024v.511h4.161v1.51h-4.133l.002.215v.123l-.002.458c0 .568.393.817.927.817h.059c.691-.011.95-.212.993-.817l2.08-.006c.046 1.962-1.053 2.944-3.295 2.944-1.408 0-2.616-.868-2.91-2.121l-.005-.036c-.043-.304-.028-.756-.03-1.532v-2.084c0-1.603 1.3-2.902 2.902-2.902z" fill="#96b4dc"/><path d="m15.373 2.902a2.824 2.824 0 0 1 2.823 2.823v3.023a2.824 2.824 0 0 1 -2.823 2.824h-.628a2.824 2.824 0 0 1 -2.823-2.824v-3.023a2.824 2.824 0 0 1 2.823-2.823h.35v1.883h-.036c-.588 0-1.065.469-1.078 1.053v2.809a1.078 1.078 0 0 0 2.156.024v-2.808c0-.581-.465-1.055-1.04-1.078v-1.883z" fill="#fff"/><path d="m25.411 14.884v3.594c0 1.42-1.148 2.63-2.568 2.63-.84.018-1.157-.167-1.548-.626l.001-2.186c.057.48.482.844.974.824.536-.02.96-.455.973-.988v-2.705a1.005 1.005 0 0 0 -1.002-1.004.945.945 0 0 0 -.945.92v.025l-.005 5.095v3.505h-2.154v-11.301h2.06v.491a2.603 2.603 0 0 1 1.723-.687 2.452 2.452 0 0 1 2.491 2.413z" fill="#96b4dc"/><path d="m25.411 5.315v3.595c0 1.42-1.148 2.629-2.568 2.629-.84.018-1.157-.167-1.548-.625l.001-2.187c.057.48.482.844.974.825.536-.021.96-.456.973-.989v-2.705a1.005 1.005 0 0 0 -1.002-1.004.945.945 0 0 0 -.945.921v.025l-.005 5.096v.948h-2.154v-8.746h2.06v.492a2.603 2.603 0 0 1 1.723-.688 2.452 2.452 0 0 1 2.491 2.413z" fill="#fff"/><path d="m2.252 7.856c0 .575-.014 1.587 1.02 1.587 1.033 0 .988-.74.988-1.012 0-.949-.977-1.346-1.695-1.886s-2.47-1.351-2.418-3.275c0-.554-.002-3.164 3.156-3.27 3.307-.074 3.186 3.01 3.186 3.635h-2.11c.093-1.66-.847-1.68-1.059-1.68-1.02.012-1.234 1.48-.619 1.83.121.105.733.568 1.836 1.391 1.305.838 1.983 1.731 2.033 2.68.155 3.774-2.802 3.716-3.361 3.716-3.185-.088-3.151-3.08-3.144-3.716z" fill="#fff" fill-rule="nonzero"/><path d="m14.408 18.333c0 .423-.02.935.976.935s.98-.446.98-.647c0-.824-1.667-1.07-2.522-1.364-.855-.293-1.536-.966-1.486-2.38 0-.484 0-2.35 3.028-2.35 3.161.053 2.992 2.233 2.992 2.693l-2.012.007c.023-.86-.82-.957-1.025-.957-.982.01-1.062 1.022-.47 1.28.176.114.896.324 1.592.532.695.209 1.976.328 2.084 2.166.15 2.775-2.667 2.86-3.206 2.86-3.068-.064-3.095-2.307-3.088-2.775z" fill="#96b4dc" fill-rule="nonzero"/><path d="m26.275 12.627h2.275v8.392h-2.275zm3.137-2.98h2.275v11.373h-2.275z" fill="#96b4dc"/><circle cx="27.412" cy="10.328" fill="#fff" r="1.244"/><path d="m32.549 9.647h2.275v11.373h-2.275z" fill="#96b4dc"/><path d="m10.08 1.08-.001 1.979h1.294v1.919h-1.294v3.897c.002.5.376.605 1.294.605v1.893c-2.326.398-3.489-.435-3.489-2.498v-3.897h-.982v-1.92h.982v-1.976h2.195z" fill="#fff"/><path d="m45.256 10.627v1.979h1.293v1.919h-1.294v3.897c.003.5.377.605 1.294.605v1.893c-2.326.398-3.488-.435-3.488-2.498v-3.897h-.983v-1.92h.983v-1.978z" fill="#96b4dc"/></g></svg> 